0
SECTION
2
HEADER
9
$INSUNITS
70
4
9
$ACADVER
1
AC1014
9
$HANDSEED
5
FFFF
0
ENDSEC
0
SECTION
2
TABLES
0
TABLE
2
VPORT
5
8
100
AcDbSymbolTable
0
ENDTAB
0
TABLE
2
LTYPE
5
5
100
AcDbSymbolTable
0
LTYPE
5
14
100
AcDbSymbolTableRecord
100
AcDbLinetypeTableRecord
2
BYBLOCK
70
0
0
LTYPE
5
15
100
AcDbSymbolTableRecord
100
AcDbLinetypeTableRecord
2
BYLAYER
70
0
0
ENDTAB
0
TABLE
2
LAYER
5
2
100
AcDbSymbolTable
70
2
0
LAYER
5
50
100
AcDbSymbolTableRecord
100
AcDbLayerTableRecord
2
0
70
0
6
CONTINUOUS
0
ENDTAB
0
TABLE
2
STYLE
5
3
100
AcDbSymbolTable
70
1
0
STYLE
5
11
100
AcDbSymbolTableRecord
100
AcDbTextStyleTableRecord
2
STANDARD
70
0
0
ENDTAB
0
TABLE
2
VIEW
5
6
100
AcDbSymbolTable
70
0
0
ENDTAB
0
TABLE
2
UCS
5
7
100
AcDbSymbolTable
70
0
0
ENDTAB
0
TABLE
2
APPID
5
9
100
AcDbSymbolTable
70
2
0
APPID
5
12
100
AcDbSymbolTableRecord
100
AcDbRegAppTableRecord
2
ACAD
70
0
0
ENDTAB
0
TABLE
2
DIMSTYLE
5
A
100
AcDbSymbolTable
70
1
0
ENDTAB
0
TABLE
2
BLOCK_RECORD
5
1
100
AcDbSymbolTable
70
1
0
BLOCK_RECORD
5
1F
100
AcDbSymbolTableRecord
100
AcDbBlockTableRecord
2
*MODEL_SPACE
0
BLOCK_RECORD
5
1B
100
AcDbSymbolTableRecord
100
AcDbBlockTableRecord
2
*PAPER_SPACE
0
ENDTAB
0
ENDSEC
0
SECTION
2
BLOCKS
0
BLOCK
5
20
100
AcDbEntity
100
AcDbBlockBegin
2
*MODEL_SPACE
0
ENDBLK
5
21
100
AcDbEntity
100
AcDbBlockEnd
0
BLOCK
5
1C
100
AcDbEntity
100
AcDbBlockBegin
2
*PAPER_SPACE
0
ENDBLK
5
1D
100
AcDbEntity
100
AcDbBlockEnd
0
ENDSEC
0
SECTION
2
ENTITIES
0
LWPOLYLINE
5
100
100
AcDbEntity
8
0
100
AcDbPolyline
90
48
70
1
43
0.0
10
-63.000000000000028
20
1.3749999999992246
10
-59.619998931884965
20
1.3749999999991322
10
-59.619998931884965
20
-1.3749999999989817
10
-63.000000000000028
20
-1.3749999999990692
10
-63.000000000000043
20
-12.531479144917697
10
-53.40882109642213
20
-35.686633333082213
10
-45.519999038884073
20
-43.575455390620249
10
-43.12997736320203
20
-41.185433714938043
10
-41.185433714938959
20
-43.129977363201
10
-43.57545539062108
20
-45.519999038883235
10
-35.686633333082945
20
-53.408821096421413
10
-12.53147914491835
20
-62.999999999999332
10
-1.3749999999997642
20
-62.999999999999332
10
-1.3749999999998639
20
-59.619998931883835
10
1.3749999999997755
20
-59.619998931883835
10
1.3749999999996754
20
-62.999999999999332
10
12.531479144918256
20
-62.999999999999332
10
35.686633333082852
20
-53.408821096421448
10
43.575455390621009
20
-45.519999038883292
10
41.185433714938888
20
-43.129977363201029
10
43.129977363201959
20
-41.185433714938078
10
45.519999038884002
20
-43.575455390620299
10
53.408821096422088
20
-35.686633333082256
10
63
20
-12.531479144917743
10
63
20
-1.3749999999991178
10
59.619998931884915
20
-1.3749999999990279
10
59.619998931884915
20
1.3749999999990861
10
63
20
1.3749999999991758
10
63.000000000000007
20
12.531479144917803
10
53.408821096422102
20
35.686633333082312
10
45.519999038884038
20
43.575455390620363
10
43.129977363202002
20
41.185433714938149
10
41.185433714938931
20
43.129977363201107
10
43.575455390621045
20
45.519999038883363
10
35.686633333082895
20
53.408821096421526
10
12.531479144918308
20
62.999999999999417
10
1.3749999999997242
20
62.999999999999432
10
1.3749999999998221
20
59.619998931883927
10
-1.3749999999998173
20
59.619998931883927
10
-1.3749999999997176
20
62.999999999999432
10
-12.531479144918301
20
62.999999999999432
10
-35.686633333082902
20
53.408821096421548
10
-43.575455390621045
20
45.519999038883384
10
-41.185433714938931
20
43.129977363201135
10
-43.129977363202002
20
41.185433714938185
10
-45.519999038884038
20
43.575455390620391
10
-53.408821096422102
20
35.686633333082355
10
-63.000000000000028
20
12.531479144917853
0
LWPOLYLINE
5
101
100
AcDbEntity
8
0
100
AcDbPolyline
90
16
70
1
43
0.0
10
-11.847759675374105
20
41.635361871295359
10
-10.000000610351607
20
40.400728736025535
10
-10.000000610351616
20
21.58999999999924
10
-13.970000000000018
20
21.58999999999924
10
-22.860000000000014
20
12.699999999999232
10
-22.860000000000035
20
-12.699999999999108
10
-13.970000000000038
20
-21.589999999999122
10
-10.000000610351634
20
-21.589999999999122
10
-10.000000610351636
20
-40.400728736025407
10
-11.847759675374141
20
-41.635361871295231
10
-24.357543386072535
20
-36.45363979596992
10
-36.453639795970638
20
-24.357543386071811
10
-43.000000000000028
20
-8.5532317973245675
10
-43.000000000000028
20
8.5532317973247061
10
-36.453639795970616
20
24.357543386071935
10
-24.357543386072514
20
36.453639795970041
0
LWPOLYLINE
5
102
100
AcDbEntity
8
0
100
AcDbPolyline
90
16
70
1
43
0.0
10
10.000000610351565
20
-40.400728736025428
10
10.000000610351572
20
-21.589999999999129
10
13.969999999999976
20
-21.589999999999133
10
22.859999999999971
20
-12.699999999999124
10
22.859999999999985
20
12.699999999999216
10
13.969999999999994
20
21.589999999999229
10
10.00000061035159
20
21.589999999999229
10
10.000000610351595
20
40.400728736025535
10
11.847759675374096
20
41.635361871295338
10
24.357543386072493
20
36.453639795970027
10
36.453639795970588
20
24.357543386071917
10
43
20
8.5532317973246759
10
42.999999999999979
20
-8.553231797324603
10
36.453639795970581
20
-24.357543386071843
10
24.357543386072464
20
-36.453639795969941
10
11.847759675374066
20
-41.635361871295245
0
CIRCLE
5
103
100
AcDbEntity
8
0
100
AcDbCircle
10
-12.700000000000017
20
12.699999999999225
30
0
40
1.3530000000000002
0
CIRCLE
5
104
100
AcDbEntity
8
0
100
AcDbCircle
10
-37.476659402887009
20
37.47665940288644
30
0
40
1.3530000000000002
0
LWPOLYLINE
5
105
100
AcDbEntity
8
0
100
AcDbPolyline
90
8
70
1
43
0.0
10
29.656779956943389
20
8.6250762926809461
10
27.656779956943396
20
8.6250762926809017
10
27.656779956943431
20
7.625076292680907
10
25.206779956943421
20
7.6250762926808457
10
25.206779956943564
20
3.6250762926808866
10
34.906779956943488
20
3.6250762926811175
10
34.906779956943417
20
6.6250762926811095
10
29.656779956943442
20
6.625076292680947
0
CIRCLE
5
106
100
AcDbEntity
8
0
100
AcDbCircle
10
-48.96561522309824
20
-20.282221915349123
30
0
40
1.7780000000000007
0
CIRCLE
5
107
100
AcDbEntity
8
0
100
AcDbCircle
10
-28.580680368138331
20
3.7365702275291723
30
0
40
1.9999999999999978
0
CIRCLE
5
108
100
AcDbEntity
8
0
100
AcDbCircle
10
-20.282221915349702
20
48.965615223097664
30
0
40
1.7780000000000007
0
CIRCLE
5
109
100
AcDbEntity
8
0
100
AcDbCircle
10
12.699999999999976
20
-12.699999999999116
30
0
40
1.3530000000000002
0
CIRCLE
5
110
100
AcDbEntity
8
0
100
AcDbCircle
10
-12.700000000000028
20
-12.699999999999108
30
0
40
1.3530000000000002
0
CIRCLE
5
111
100
AcDbEntity
8
0
100
AcDbCircle
10
-20.282221915349744
20
-48.965615223097544
30
0
40
1.7780000000000007
0
CIRCLE
5
112
100
AcDbEntity
8
0
100
AcDbCircle
10
1.9117763414785557e-14
20
13.470384181603734
30
0
40
1.7779999999999907
0
CIRCLE
5
113
100
AcDbEntity
8
0
100
AcDbCircle
10
-28.580680368138331
20
3.7365702275291723
30
0
40
3.0000000000000031
0
CIRCLE
5
114
100
AcDbEntity
8
0
100
AcDbCircle
10
-6.9388939039072284e-14
20
-52.999999999999332
30
0
40
1.3530000000000002
0
CIRCLE
5
115
100
AcDbEntity
8
0
100
AcDbCircle
10
53
20
-5.8724606217699758e-13
30
0
40
1.3530000000000002
0
CIRCLE
5
116
100
AcDbEntity
8
0
100
AcDbCircle
10
48.965615223098183
20
20.282221915349226
30
0
40
1.7780000000000007
0
CIRCLE
5
117
100
AcDbEntity
8
0
100
AcDbCircle
10
12.699999999999985
20
12.699999999999216
30
0
40
1.3530000000000002
0
CIRCLE
5
118
100
AcDbEntity
8
0
100
AcDbCircle
10
20.282221915349655
20
-48.965615223097565
30
0
40
1.7780000000000007
0
CIRCLE
5
119
100
AcDbEntity
8
0
100
AcDbCircle
10
8.6491719465114777e-15
20
-13.470384181603627
30
0
40
1.7779999999999907
0
CIRCLE
5
120
100
AcDbEntity
8
0
100
AcDbCircle
10
13.470384181603681
20
3.7198663109913772e-13
30
0
40
1.7779999999999907
0
CIRCLE
5
121
100
AcDbEntity
8
0
100
AcDbCircle
10
1.830779267430719e-15
20
40.411152544811024
30
0
40
1.7779999999999907
0
CIRCLE
5
122
100
AcDbEntity
8
0
100
AcDbCircle
10
37.476659402886966
20
-37.476659402886341
30
0
40
1.3530000000000002
0
CIRCLE
5
123
100
AcDbEntity
8
0
100
AcDbCircle
10
-48.965615223098212
20
20.282221915349261
30
0
40
1.7780000000000007
0
CIRCLE
5
124
100
AcDbEntity
8
0
100
AcDbCircle
10
-2.8199664825479405e-14
20
52.999999999999432
30
0
40
1.3530000000000002
0
CIRCLE
5
125
100
AcDbEntity
8
0
100
AcDbCircle
10
37.476659402887002
20
37.476659402886405
30
0
40
1.3530000000000002
0
CIRCLE
5
126
100
AcDbEntity
8
0
100
AcDbCircle
10
0
20
0
30
0
40
1.3530000000000002
0
CIRCLE
5
127
100
AcDbEntity
8
0
100
AcDbCircle
10
-13.470384181603725
20
-2.6709062311412648e-13
30
0
40
1.7779999999999907
0
CIRCLE
5
128
100
AcDbEntity
8
0
100
AcDbCircle
10
-37.476659402887037
20
-37.476659402886312
30
0
40
1.3530000000000002
0
CIRCLE
5
129
100
AcDbEntity
8
0
100
AcDbCircle
10
48.965615223098176
20
-20.282221915349158
30
0
40
1.7780000000000007
0
CIRCLE
5
130
100
AcDbEntity
8
0
100
AcDbCircle
10
20.282221915349702
20
48.965615223097636
30
0
40
1.7780000000000007
0
CIRCLE
5
131
100
AcDbEntity
8
0
100
AcDbCircle
10
-4.3464142690874161e-14
20
-40.411152544810918
30
0
40
1.7779999999999907
0
CIRCLE
5
132
100
AcDbEntity
8
0
100
AcDbCircle
10
-53.000000000000028
20
6.9214207016200851e-13
30
0
40
1.3530000000000002
0
CIRCLE
5
133
100
AcDbEntity
8
0
100
AcDbCircle
10
-28.580680368138331
20
3.7365702275291723
30
0
40
3.0000000000000031
0
CIRCLE
5
134
100
AcDbEntity
8
0
100
AcDbCircle
10
-28.580680368138331
20
3.7365702275291723
30
0
40
1.9999999999999978
0
CIRCLE
5
135
100
AcDbEntity
8
0
100
AcDbCircle
10
-28.580680368138331
20
10.736570227529166
30
0
40
1.9999999999999978
0
CIRCLE
5
136
100
AcDbEntity
8
0
100
AcDbCircle
10
-28.580680368138331
20
10.736570227529166
30
0
40
3.0000000000000031
0
CIRCLE
5
137
100
AcDbEntity
8
0
100
AcDbCircle
10
-28.580680368138331
20
10.736570227529166
30
0
40
3.0000000000000031
0
CIRCLE
5
138
100
AcDbEntity
8
0
100
AcDbCircle
10
-28.580680368138331
20
10.736570227529166
30
0
40
1.9999999999999978
0
CIRCLE
5
139
100
AcDbEntity
8
0
100
AcDbCircle
10
-28.580680368138349
20
17.736570227529175
30
0
40
1.9999999999999978
0
CIRCLE
5
140
100
AcDbEntity
8
0
100
AcDbCircle
10
-28.580680368138349
20
24.736570227529171
30
0
40
1.9999999999999978
0
CIRCLE
5
141
100
AcDbEntity
8
0
100
AcDbCircle
10
-28.580680368138349
20
17.736570227529175
30
0
40
1.9999999999999978
0
CIRCLE
5
142
100
AcDbEntity
8
0
100
AcDbCircle
10
-28.580680368138349
20
17.736570227529175
30
0
40
3.0000000000000031
0
CIRCLE
5
143
100
AcDbEntity
8
0
100
AcDbCircle
10
-28.580680368138349
20
24.736570227529171
30
0
40
1.9999999999999978
0
CIRCLE
5
144
100
AcDbEntity
8
0
100
AcDbCircle
10
-28.580680368138349
20
24.736570227529171
30
0
40
3.0000000000000031
0
CIRCLE
5
145
100
AcDbEntity
8
0
100
AcDbCircle
10
-28.580680368138349
20
24.736570227529171
30
0
40
3.0000000000000031
0
CIRCLE
5
146
100
AcDbEntity
8
0
100
AcDbCircle
10
-28.580680368138349
20
17.736570227529175
30
0
40
3.0000000000000031
0
CIRCLE
5
147
100
AcDbEntity
8
0
100
AcDbCircle
10
-35.580680368138331
20
0.73657022752916523
30
0
40
3.0000000000000031
0
CIRCLE
5
148
100
AcDbEntity
8
0
100
AcDbCircle
10
-35.580680368138331
20
0.73657022752916523
30
0
40
1.9999999999999978
0
CIRCLE
5
149
100
AcDbEntity
8
0
100
AcDbCircle
10
-35.580680368138331
20
0.73657022752916523
30
0
40
1.9999999999999978
0
CIRCLE
5
150
100
AcDbEntity
8
0
100
AcDbCircle
10
-35.580680368138353
20
14.736570227529171
30
0
40
1.9999999999999978
0
CIRCLE
5
151
100
AcDbEntity
8
0
100
AcDbCircle
10
-35.580680368138353
20
7.7365702275291763
30
0
40
1.9999999999999978
0
CIRCLE
5
152
100
AcDbEntity
8
0
100
AcDbCircle
10
-35.580680368138353
20
7.7365702275291763
30
0
40
1.9999999999999978
0
CIRCLE
5
153
100
AcDbEntity
8
0
100
AcDbCircle
10
-35.580680368138353
20
7.7365702275291763
30
0
40
3.0000000000000031
0
CIRCLE
5
154
100
AcDbEntity
8
0
100
AcDbCircle
10
-35.580680368138331
20
0.73657022752916523
30
0
40
3.0000000000000031
0
CIRCLE
5
155
100
AcDbEntity
8
0
100
AcDbCircle
10
-35.580680368138353
20
14.736570227529171
30
0
40
3.0000000000000031
0
CIRCLE
5
156
100
AcDbEntity
8
0
100
AcDbCircle
10
-35.580680368138353
20
14.736570227529171
30
0
40
3.0000000000000031
0
CIRCLE
5
157
100
AcDbEntity
8
0
100
AcDbCircle
10
-35.580680368138353
20
14.736570227529171
30
0
40
1.9999999999999978
0
CIRCLE
5
158
100
AcDbEntity
8
0
100
AcDbCircle
10
-35.580680368138331
20
-6.2634297724708272
30
0
40
3.0000000000000031
0
CIRCLE
5
159
100
AcDbEntity
8
0
100
AcDbCircle
10
-35.580680368138331
20
-6.2634297724708272
30
0
40
3.0000000000000031
0
CIRCLE
5
160
100
AcDbEntity
8
0
100
AcDbCircle
10
-35.580680368138331
20
-6.2634297724708272
30
0
40
1.9999999999999978
0
CIRCLE
5
161
100
AcDbEntity
8
0
100
AcDbCircle
10
-35.580680368138331
20
-6.2634297724708272
30
0
40
1.9999999999999978
0
CIRCLE
5
162
100
AcDbEntity
8
0
100
AcDbCircle
10
-35.580680368138353
20
7.7365702275291763
30
0
40
3.0000000000000031
0
CIRCLE
5
163
100
AcDbEntity
8
0
100
AcDbCircle
10
-28.580680368138349
20
-4.2634297724708308
30
0
40
3.0000000000000031
0
CIRCLE
5
164
100
AcDbEntity
8
0
100
AcDbCircle
10
-28.580680368138331
20
-25.263429772470829
30
0
40
3.0000000000000031
0
CIRCLE
5
165
100
AcDbEntity
8
0
100
AcDbCircle
10
-28.580680368138331
20
-25.263429772470829
30
0
40
1.9999999999999978
0
CIRCLE
5
166
100
AcDbEntity
8
0
100
AcDbCircle
10
-28.580680368138331
20
-25.263429772470829
30
0
40
3.0000000000000031
0
CIRCLE
5
167
100
AcDbEntity
8
0
100
AcDbCircle
10
-28.580680368138331
20
-25.263429772470829
30
0
40
1.9999999999999978
0
CIRCLE
5
168
100
AcDbEntity
8
0
100
AcDbCircle
10
-28.580680368138331
20
-18.263429772470836
30
0
40
3.0000000000000031
0
CIRCLE
5
169
100
AcDbEntity
8
0
100
AcDbCircle
10
-28.580680368138331
20
-18.263429772470836
30
0
40
1.9999999999999978
0
CIRCLE
5
170
100
AcDbEntity
8
0
100
AcDbCircle
10
-28.580680368138349
20
-11.263429772470825
30
0
40
3.0000000000000031
0
CIRCLE
5
171
100
AcDbEntity
8
0
100
AcDbCircle
10
-28.580680368138349
20
-4.2634297724708308
30
0
40
1.9999999999999978
0
CIRCLE
5
172
100
AcDbEntity
8
0
100
AcDbCircle
10
-28.580680368138331
20
-18.263429772470836
30
0
40
1.9999999999999978
0
CIRCLE
5
173
100
AcDbEntity
8
0
100
AcDbCircle
10
-28.580680368138349
20
-11.263429772470825
30
0
40
1.9999999999999978
0
CIRCLE
5
174
100
AcDbEntity
8
0
100
AcDbCircle
10
-28.580680368138349
20
-4.2634297724708308
30
0
40
3.0000000000000031
0
CIRCLE
5
175
100
AcDbEntity
8
0
100
AcDbCircle
10
-28.580680368138349
20
-11.263429772470825
30
0
40
3.0000000000000031
0
CIRCLE
5
176
100
AcDbEntity
8
0
100
AcDbCircle
10
-28.580680368138349
20
-11.263429772470825
30
0
40
1.9999999999999978
0
CIRCLE
5
177
100
AcDbEntity
8
0
100
AcDbCircle
10
-28.580680368138349
20
-4.2634297724708308
30
0
40
1.9999999999999978
0
CIRCLE
5
178
100
AcDbEntity
8
0
100
AcDbCircle
10
-28.580680368138331
20
-18.263429772470836
30
0
40
3.0000000000000031
0
LWPOLYLINE
5
179
100
AcDbEntity
8
0
100
AcDbPolyline
90
8
70
1
43
0.0
10
32.656779956943453
20
7.6250762926809088
10
32.65677995694341
20
8.6250762926809035
10
35.106779956943427
20
8.6250762926809639
10
35.106779956943285
20
12.625076292680921
10
25.406779956943346
20
12.625076292680696
10
25.406779956943417
20
9.6250762926807027
10
30.656779956943385
20
9.6250762926808626
10
30.656779956943438
20
7.6250762926808662
0
LWPOLYLINE
5
180
100
AcDbEntity
8
0
100
AcDbPolyline
90
8
70
1
43
0.0
10
25.406779956943346
20
23.625076292680678
10
25.406779956943417
20
20.625076292680685
10
30.656779956943385
20
20.625076292680845
10
30.656779956943438
20
18.625076292680845
10
32.656779956943453
20
18.625076292680891
10
32.65677995694341
20
19.625076292680884
10
35.106779956943427
20
19.625076292680944
10
35.106779956943285
20
23.625076292680905
0
LWPOLYLINE
5
181
100
AcDbEntity
8
0
100
AcDbPolyline
90
8
70
1
43
0.0
10
27.656779956943431
20
18.625076292680887
10
25.206779956943421
20
18.625076292680827
10
25.206779956943564
20
14.62507629268087
10
34.906779956943488
20
14.625076292681099
10
34.906779956943417
20
17.625076292681086
10
29.656779956943442
20
17.625076292680927
10
29.656779956943389
20
19.625076292680927
10
27.656779956943396
20
19.625076292680884
0
LWPOLYLINE
5
182
100
AcDbEntity
8
0
100
AcDbPolyline
90
8
70
1
43
0.0
10
25.406779956943346
20
1.6250762926806761
10
25.406779956943417
20
-1.3749237073193177
10
30.656779956943385
20
-1.3749237073191578
10
30.656779956943438
20
-3.3749237073191551
10
32.656779956943453
20
-3.3749237073191107
10
32.65677995694341
20
-2.3749237073191165
10
35.106779956943427
20
-2.3749237073190566
10
35.106779956943285
20
1.6250762926809026
0
LWPOLYLINE
5
183
100
AcDbEntity
8
0
100
AcDbPolyline
90
8
70
1
43
0.0
10
27.656779956943396
20
-2.3749237073191187
10
27.656779956943431
20
-3.3749237073191152
10
25.206779956943421
20
-3.3749237073191751
10
25.206779956943564
20
-7.374923707319132
10
34.906779956943488
20
-7.3749237073189029
10
34.906779956943417
20
-4.3749237073189136
10
29.656779956943442
20
-4.3749237073190734
10
29.656779956943389
20
-2.3749237073190743
0
LWPOLYLINE
5
184
100
AcDbEntity
8
0
100
AcDbPolyline
90
8
70
1
43
0.0
10
30.656779956943438
20
-14.374923707319136
10
32.656779956943453
20
-14.374923707319095
10
32.65677995694341
20
-13.374923707319098
10
35.106779956943427
20
-13.374923707319038
10
35.106779956943285
20
-9.3749237073190805
10
25.406779956943346
20
-9.3749237073193079
10
25.406779956943417
20
-12.374923707319299
10
30.656779956943385
20
-12.374923707319139
0
LWPOLYLINE
5
185
100
AcDbEntity
8
0
100
AcDbPolyline
90
8
70
1
43
0.0
10
29.656779956943389
20
-13.374923707319057
10
27.656779956943396
20
-13.374923707319102
10
27.656779956943431
20
-14.374923707319095
10
25.206779956943421
20
-14.374923707319155
10
25.206779956943564
20
-18.374923707319116
10
34.906779956943488
20
-18.374923707318885
10
34.906779956943417
20
-15.374923707318892
10
29.656779956943442
20
-15.374923707319056
0
ENDSEC
0
SECTION
2
OBJECTS
0
DICTIONARY
5
C
100
AcDbDictionary
3
ACAD_GROUP
350
D
3
ACAD_MLINESTYLE
350
17
0
DICTIONARY
5
D
100
AcDbDictionary
0
DICTIONARY
5
1A
330
C
100
AcDbDictionary
0
DICTIONARY
5
17
100
AcDbDictionary
0
ENDSEC
0
EOF
